<svg width="20" height="20" viewBox="0 0 20 20" fill="none" xmlns="http://www.w3.org/2000/svg">
<path fill-rule="evenodd" clip-rule="evenodd" d="M13.6569 4.92891C12.4853 3.75734 10.5858 3.75734 9.41425 4.92891L7.29293 7.05023C6.90241 7.44076 6.90241 8.07392 7.29293 8.46445L8.00004 9.17155C8.18758 9.35909 8.29293 9.61344 8.29293 9.87866C8.29293 10.1439 8.18758 10.3982 8.00004 10.5858L4.05029 14.5355V15.9497H5.62394L9.39982 12.0147C9.58592 11.8208 9.84226 11.7099 10.111 11.7071C10.3798 11.7044 10.6384 11.8099 10.8285 12L11.5356 12.7071C11.9261 13.0976 12.5593 13.0976 12.9498 12.7071L15.0711 10.5858C16.2427 9.41419 16.2427 7.5147 15.0711 6.34312L13.6569 4.92891ZM8.00004 3.5147C9.95266 1.56208 13.1185 1.56208 15.0711 3.5147L16.4853 4.92891C18.4379 6.88153 18.4379 10.0474 16.4853 12L14.364 14.1213C13.1973 15.288 11.3089 15.2929 10.1362 14.136L6.77184 17.6421C6.58326 17.8386 6.32267 17.9497 6.05029 17.9497H3.05029C2.49801 17.9497 2.05029 17.502 2.05029 16.9497V14.1213C2.05029 13.8561 2.15565 13.6017 2.34319 13.4142L5.87872 9.87866C4.70715 8.70709 4.70715 6.80759 5.87872 5.63602L8.00004 3.5147ZM10.8284 6.34319C11.219 5.95267 11.8521 5.95267 12.2426 6.34319L13.6569 7.75741C14.0474 8.14793 14.0474 8.7811 13.6569 9.17162C13.2663 9.56215 12.6332 9.56215 12.2426 9.17162L10.8284 7.75741C10.4379 7.36688 10.4379 6.73372 10.8284 6.34319Z" fill="#EEAC2C"/>
</svg>
