<svg width="20" height="20" viewBox="0 0 20 20" fill="none" xmlns="http://www.w3.org/2000/svg">
<path d="M5.29289 11.2071C4.90237 10.8166 4.90237 10.1834 5.29289 9.79289L6.93708 8.14871L5.3415 6.75258C4.92586 6.38889 4.88374 5.75713 5.24742 5.3415C5.61111 4.92586 6.24287 4.88374 6.6585 5.24742L10 8.17123L13.3415 5.24742C13.7571 4.88374 14.3889 4.92586 14.7526 5.3415C15.1163 5.75713 15.0741 6.38889 14.6585 6.75258L13.0629 8.14871L14.7071 9.79289C15.0976 10.1834 15.0976 10.8166 14.7071 11.2071C14.3166 11.5976 13.6834 11.5976 13.2929 11.2071L11.5544 9.46864L10.6585 10.2526C10.2815 10.5825 9.71852 10.5825 9.3415 10.2526L8.44557 9.46864L6.70711 11.2071C6.31658 11.5976 5.68342 11.5976 5.29289 11.2071Z" fill="#FF9C37"/>
<path fill-rule="evenodd" clip-rule="evenodd" d="M2 5C2 3.34315 3.34315 2 5 2H15C16.6569 2 18 3.34315 18 5V12C18 13.6569 16.6569 15 15 15H5C3.34315 15 2 13.6569 2 12V5ZM5 4C4.44772 4 4 4.44772 4 5V12C4 12.5523 4.44772 13 5 13H15C15.5523 13 16 12.5523 16 12V5C16 4.44772 15.5523 4 15 4H5Z" fill="#FF9C37"/>
<path d="M5 16C4.44772 16 4 16.4477 4 17C4 17.5523 4.44772 18 5 18H15C15.5523 18 16 17.5523 16 17C16 16.4477 15.5523 16 15 16H5Z" fill="#FF9C37"/>
</svg>
