<svg width="20" height="20" viewBox="0 0 20 20" fill="none" xmlns="http://www.w3.org/2000/svg">
<path fill-rule="evenodd" clip-rule="evenodd" d="M12.8647 2.89273C14.0363 1.72116 15.9357 1.72116 17.1073 2.89273C18.2789 4.06431 18.2789 5.9638 17.1073 7.13537L14.7171 9.52563L16.7556 14.0105C17.1244 14.8218 16.9512 15.7768 16.321 16.407C15.449 17.279 14.022 17.2345 13.2061 16.3097L10.7343 13.5084L10.1294 14.1133L10.3527 15.3786C10.4786 16.0924 10.2484 16.8227 9.73588 17.3352C8.71405 18.3571 7.004 18.1466 6.26051 16.9074L5.07256 14.9275L3.09265 13.7395C1.8535 12.9961 1.64298 11.286 2.66481 10.2642C3.17734 9.75165 3.9077 9.52142 4.62149 9.64739L5.88675 9.87067L6.49167 9.26575L3.69038 6.79402C2.76564 5.97808 2.72109 4.5511 3.59313 3.67906C4.22332 3.04887 5.17831 2.8757 5.98965 3.24449L10.4744 5.28301L12.8647 2.89273ZM15.6931 4.30695C15.3026 3.91642 14.6694 3.91642 14.2789 4.30695L11.3986 7.18725C11.1038 7.482 10.6572 7.563 10.2777 7.39051L5.16204 5.06522C5.10967 5.04141 5.04802 5.05259 5.00734 5.09327C4.95105 5.14956 4.95393 5.24168 5.01362 5.29435L8.61307 8.47034C8.82007 8.65298 8.94235 8.91306 8.95097 9.18897C8.95958 9.46488 8.85375 9.73209 8.65856 9.92728L6.9328 11.653C6.70206 11.8838 6.37326 11.9874 6.05191 11.9307L4.27392 11.617C4.20282 11.6044 4.13007 11.6273 4.07902 11.6784C3.97724 11.7802 3.99821 11.9505 4.12164 12.0246L6.31593 13.3411C6.45668 13.4256 6.57447 13.5434 6.65892 13.6841L7.9755 15.8784C8.04955 16.0018 8.21989 16.0228 8.32167 15.921C8.37272 15.87 8.39565 15.7972 8.3831 15.7261L8.06934 13.9481C8.01263 13.6268 8.11628 13.298 8.34702 13.0673L10.0728 11.3415C10.268 11.1463 10.5352 11.0405 10.8111 11.0491C11.087 11.0577 11.3471 11.18 11.5297 11.387L14.7058 14.9865C14.7584 15.0462 14.8505 15.0491 14.9068 14.9928C14.9475 14.9521 14.9587 14.8904 14.9349 14.8381L12.6096 9.72235C12.4371 9.34287 12.5181 8.8962 12.8128 8.60144L15.6931 5.72116C16.0836 5.33064 16.0836 4.69747 15.6931 4.30695Z" fill="#C15DF3"/>
</svg>
