<svg width="20" height="20" viewBox="0 0 20 20" fill="none" xmlns="http://www.w3.org/2000/svg">
<path fill-rule="evenodd" clip-rule="evenodd" d="M7.53513 4C8.22675 2.8044 9.51944 2 11 2C13.2091 2 15 3.79086 15 6V8C15 9.05901 14.5878 10.0219 13.9173 10.7366C16.2784 11.439 18 13.6248 18 16.2143C18 17.2005 17.2005 18 16.2143 18H5.78571C4.79949 18 4 17.2005 4 16.2143C4 13.6248 5.72163 11.439 8.08271 10.7366C7.41221 10.0219 7 9.05901 7 8V6H6.42857C6.03408 6 5.71429 6.3198 5.71429 6.71429V7.85714C5.71429 8.09177 5.82637 8.3 6.00421 8.43184C6.30415 8.6542 6.57143 9.04072 6.57143 9.5369C6.57143 10.2783 6.00044 10.7828 5.41371 10.88C4.61171 11.0129 4 11.7115 4 12.551C4 13.1033 3.55228 13.551 3 13.551C2.44772 13.551 2 13.1033 2 12.551C2 11.0875 2.85052 9.82382 4.08425 9.22565C3.84938 8.82408 3.71429 8.35635 3.71429 7.85714V6.71429C3.71429 5.21523 4.92951 4 6.42857 4H7.53513ZM11 4C9.89543 4 9 4.89543 9 6V8C9 8.65818 9.3169 9.24214 9.81073 9.60823C10.1833 9.88443 10.5 10.353 10.5 10.9396C10.5 11.8164 9.8218 12.4308 9.10138 12.5502C7.41056 12.8303 6.10542 14.2546 6.00608 16H15.9939C15.8946 14.2546 14.5894 12.8303 12.8986 12.5502C12.1782 12.4308 11.5 11.8164 11.5 10.9396C11.5 10.353 11.8167 9.88443 12.1893 9.60823C12.6831 9.24214 13 8.65818 13 8V6C13 4.89543 12.1046 4 11 4Z" fill="#7288FF"/>
</svg>
